# Blender v2.79 (sub 0) OBJ File: 'rpsba assets.blend'
# www.blender.org
mtllib paper.mtl
o Plane_Plane.001
v -1.187926 0.007204 1.791295
v 1.187926 0.094646 1.791295
v -1.187926 0.078158 -1.791295
v 1.187926 -0.141362 -1.791295
v -1.187926 -0.066714 -1.194196
v -1.187926 -0.077965 -0.597098
v -1.187926 0.100145 0.000000
v -1.187926 -0.059609 0.597098
v -1.187926 -0.095496 1.194196
v -0.791951 0.071943 1.791295
v -0.395975 -0.098754 1.791295
v 0.000000 -0.085417 1.791295
v 0.395975 -0.037392 1.791295
v 0.791951 -0.204196 1.791295
v 1.187926 -0.053807 1.194196
v 1.187926 -0.107230 0.597098
v 1.187926 0.021045 -0.000000
v 1.187926 -0.089196 -0.597098
v 1.187926 -0.203603 -1.194196
v 0.791951 0.100108 -1.791295
v 0.395975 0.019086 -1.791295
v -0.000000 0.169861 -1.791295
v -0.395975 -0.002053 -1.791295
v -0.791951 0.121056 -1.791295
v -0.791951 0.008586 1.194196
v -0.791951 0.100039 0.597098
v -0.791951 0.006907 -0.000000
v -0.791951 0.100336 -0.597098
v -0.791951 0.106554 -1.194196
v -0.395975 -0.150406 1.194196
v -0.395975 -0.142823 0.597098
v -0.395975 -0.034630 -0.000000
v -0.395975 -0.115155 -0.597098
v -0.395975 0.161412 -1.194196
v 0.000000 -0.171360 1.194196
v 0.000000 0.015429 0.597098
v -0.000000 0.055342 -0.000000
v -0.000000 0.077876 -0.597098
v -0.000000 -0.125331 -1.194196
v 0.395975 0.011033 1.194196
v 0.395975 -0.197142 0.597098
v 0.395975 0.149693 -0.000000
v 0.395975 0.052451 -0.597098
v 0.395975 -0.028231 -1.194196
v 0.791951 -0.085379 1.194196
v 0.791951 -0.245016 0.597098
v 0.791951 -0.017736 -0.000000
v 0.791951 0.050379 -0.597098
v 0.791951 0.102451 -1.194196
vn 0.5682 0.8219 0.0412
vn -0.2612 0.9568 0.1277
vn 0.0852 0.9887 -0.1233
vn 0.1426 0.9838 0.1085
vn 0.0650 0.9592 0.2751
vn -0.2581 0.9654 0.0364
vn -0.2066 0.9691 -0.1348
vn -0.3144 0.9440 0.1007
vn -0.0834 0.9950 0.0555
vn -0.1065 0.9918 -0.0703
vn -0.4057 0.9139 0.0134
vn 0.3828 0.9196 -0.0886
vn 0.4513 0.8893 0.0738
vn 0.3380 0.9411 0.0119
vn 0.3087 0.9511 0.0103
vn 0.1936 0.9547 0.2261
vn 0.0096 0.9934 -0.1145
vn -0.1687 0.9729 0.1583
vn -0.2970 0.9476 0.1175
vn -0.3362 0.9407 -0.0457
vn 0.1173 0.9912 0.0609
vn -0.2792 0.9597 -0.0302
vn 0.0381 0.9991 -0.0179
vn 0.1406 0.9419 0.3050
vn -0.0865 0.9943 -0.0622
vn -0.0877 0.9691 -0.2304
vn 0.3127 0.9407 0.1317
vn 0.1715 0.9415 -0.2900
vn 0.2380 0.8754 0.4208
vn 0.2092 0.9776 -0.0238
vn -0.1603 0.9868 -0.0236
vn -0.3849 0.9227 -0.0229
vn -0.2060 0.9633 -0.1719
vn -0.2090 0.9373 0.2791
vn 0.1262 0.9914 -0.0350
vn 0.4899 0.8706 -0.0454
usemtl None
s off
f 49//1 19//1 4//1 20//1
f 5//2 29//2 24//2 3//2
f 29//3 34//3 23//3 24//3
f 34//4 39//4 22//4 23//4
f 39//5 44//5 21//5 22//5
f 44//6 49//6 20//6 21//6
f 1//7 10//7 25//7 9//7
f 9//8 25//8 26//8 8//8
f 8//9 26//9 27//9 7//9
f 7//10 27//10 28//10 6//10
f 6//11 28//11 29//11 5//11
f 10//12 11//12 30//12 25//12
f 25//13 30//13 31//13 26//13
f 26//14 31//14 32//14 27//14
f 27//15 32//15 33//15 28//15
f 28//16 33//16 34//16 29//16
f 11//17 12//17 35//17 30//17
f 30//18 35//18 36//18 31//18
f 31//19 36//19 37//19 32//19
f 32//20 37//20 38//20 33//20
f 33//21 38//21 39//21 34//21
f 12//22 13//22 40//22 35//22
f 35//23 40//23 41//23 36//23
f 36//24 41//24 42//24 37//24
f 37//25 42//25 43//25 38//25
f 38//26 43//26 44//26 39//26
f 13//27 14//27 45//27 40//27
f 40//28 45//28 46//28 41//28
f 41//29 46//29 47//29 42//29
f 42//30 47//30 48//30 43//30
f 43//31 48//31 49//31 44//31
f 14//32 2//32 15//32 45//32
f 45//33 15//33 16//33 46//33
f 46//34 16//34 17//34 47//34
f 47//35 17//35 18//35 48//35
f 48//36 18//36 19//36 49//36
