# Blender v2.79 (sub 0) OBJ File: ''
# www.blender.org
mtllib scissors.mtl
o Plane.001_Plane.002
v 0.015343 -1.828352 -1.204307
v 0.015343 -1.828352 -2.654751
v 0.015343 -0.377908 -1.204307
v 0.015343 -0.377908 -2.654751
v 0.015343 -1.528001 -1.504659
v 0.015343 -1.528001 -2.354399
v 0.015343 -0.678260 -1.504659
v 0.015343 -0.678260 -2.354400
v 0.014038 0.412933 2.586305
v 0.014038 -0.172040 3.384498
v 0.014038 0.412933 -0.144166
v 0.014038 -0.172040 -0.144166
v 0.014038 0.120447 -0.144166
v 0.014038 0.120447 -0.632412
v 0.015343 -0.678260 -1.593585
v 0.015343 -0.377908 -1.356098
v 0.015343 -0.764808 -1.504659
v 0.015343 -0.727636 -1.204307
v 0.175365 -1.828352 -1.204307
v 0.175365 -1.828352 -2.654751
v 0.175365 -0.377908 -1.204307
v 0.175365 -0.377908 -2.654751
v 0.175365 -1.528001 -1.504659
v 0.175365 -1.528001 -2.354399
v 0.175365 -0.678260 -1.504659
v 0.175365 -0.678260 -2.354400
v 0.161448 0.407975 2.575297
v 0.023912 -0.179173 3.368659
v 0.174060 0.412933 -0.144166
v 0.042057 -0.172040 -0.144166
v 0.174060 0.120447 -0.144166
v 0.174060 0.120447 -0.632412
v 0.175365 -0.678260 -1.593585
v 0.175365 -0.377908 -1.356098
v 0.175365 -0.764808 -1.504659
v 0.175365 -0.727636 -1.204307
v 0.147924 0.110172 2.962588
v 0.161427 2.217133 -0.191297
v 0.161427 2.957171 -1.438746
v 0.161427 0.969683 -0.931335
v 0.161427 1.709721 -2.178784
v 0.161427 2.112061 -0.602857
v 0.161427 2.545611 -1.333673
v 0.161427 1.381244 -1.036407
v 0.161427 1.814794 -1.767224
v 0.162731 -1.644504 1.925270
v 0.162732 -1.548650 2.910216
v 0.162731 -0.251377 -0.423063
v 0.162732 0.251727 -0.124601
v 0.162732 0.000175 -0.273832
v 0.162732 0.249285 -0.693746
v 0.161427 1.426615 -1.112888
v 0.161427 1.047129 -1.061882
v 0.161427 1.455679 -0.992249
v 0.161427 1.270466 -0.752898
v 0.001405 2.217133 -0.191297
v 0.001405 2.957171 -1.438746
v 0.001405 0.969683 -0.931335
v 0.001405 1.709721 -2.178784
v 0.001405 2.112061 -0.602857
v 0.001405 2.545611 -1.333673
v 0.001405 1.381244 -1.036407
v 0.001405 1.814794 -1.767224
v 0.015321 -1.634624 1.918332
v 0.152858 -1.534434 2.900233
v 0.002710 -0.251377 -0.423063
v 0.134713 0.251727 -0.124601
v 0.002710 0.000175 -0.273832
v 0.002710 0.249285 -0.693746
v 0.001405 1.426615 -1.112888
v 0.001405 1.047129 -1.061882
v 0.001405 1.455679 -0.992249
v 0.001405 1.270466 -0.752898
v 0.028846 -1.576100 2.403365
vn -1.0000 0.0000 -0.0000
vn 1.0000 0.0000 0.0000
vn 0.9998 -0.0186 0.0066
vn 0.9115 -0.4114 0.0000
vn 0.0000 1.0000 -0.0000
vn 0.0000 0.0000 -1.0000
vn 0.0000 0.0000 1.0000
vn 0.0000 -1.0000 0.0000
vn 0.0162 0.9999 0.0009
vn 0.0000 0.8579 -0.5139
vn 0.1621 0.7857 0.5970
vn -0.1856 -0.9826 -0.0015
vn 0.9166 -0.3998 0.0051
vn 0.9878 -0.0860 0.1300
vn -1.0000 -0.0010 -0.0010
vn -0.0000 0.8236 -0.5672
vn 0.0000 -0.8857 0.4642
vn -0.9998 0.0126 0.0152
vn -0.9115 0.3538 0.2099
vn 0.0000 -0.8600 -0.5102
vn 0.0000 0.5102 -0.8600
vn 0.0000 -0.5102 0.8600
vn 0.0000 0.8600 0.5102
vn -0.0162 -0.8604 -0.5093
vn 0.0000 -0.4756 -0.8797
vn -0.1621 -0.9803 0.1126
vn 0.1856 0.8459 0.5001
vn -0.9166 0.3412 0.2083
vn -0.9878 0.0077 0.1557
vn 1.0000 0.0013 -0.0003
vn -0.0000 -0.4190 -0.9080
vn 0.0000 0.5249 0.8511
usemtl None
s off
f 6//1 2//1 1//1 5//1
f 17//1 18//1 3//1 7//1
f 8//1 4//1 2//1 6//1
f 15//1 16//1 4//1 8//1
f 9//1 11//1 13//1 12//1 10//1
f 11//1 14//1 13//1
f 13//1 14//1 12//1
f 7//1 3//1 16//1 15//1
f 5//1 1//1 18//1 17//1
f 24//2 23//2 19//2 20//2
f 35//2 25//2 21//2 36//2
f 26//2 24//2 20//2 22//2
f 33//2 26//2 22//2 34//2
f 27//3 37//3 31//3 29//3
f 29//2 31//2 32//2
f 31//4 30//4 32//4
f 25//2 33//2 34//2 21//2
f 23//2 35//2 36//2 19//2
f 6//5 5//5 23//5 24//5
f 17//6 7//6 25//6 35//6
f 5//6 17//6 35//6 23//6
f 8//7 6//7 24//7 26//7
f 7//8 15//8 33//8 25//8
f 1//8 2//8 20//8 19//8
f 11//9 9//9 27//9 29//9
f 14//10 11//10 29//10 32//10
f 18//7 1//7 19//7 36//7
f 15//8 8//8 26//8 33//8
f 9//11 10//11 28//11 37//11 27//11
f 2//6 4//6 22//6 20//6
f 4//5 16//5 34//5 22//5
f 10//12 12//12 30//12 28//12
f 37//13 28//13 30//13 31//13
f 21//14 34//14 32//14 30//14 36//14
f 3//15 18//15 12//15 14//15 16//15
f 34//16 16//16 14//16 32//16
f 30//17 12//17 18//17 36//17
f 43//2 39//2 38//2 42//2
f 54//2 55//2 40//2 44//2
f 45//2 41//2 39//2 43//2
f 52//2 53//2 41//2 45//2
f 46//2 48//2 50//2 49//2 47//2
f 48//2 51//2 50//2
f 50//2 51//2 49//2
f 44//2 40//2 53//2 52//2
f 42//2 38//2 55//2 54//2
f 61//1 60//1 56//1 57//1
f 72//1 62//1 58//1 73//1
f 63//1 61//1 57//1 59//1
f 70//1 63//1 59//1 71//1
f 64//18 74//18 68//18 66//18
f 66//1 68//1 69//1
f 68//19 67//19 69//19
f 62//1 70//1 71//1 58//1
f 60//1 72//1 73//1 56//1
f 43//20 42//20 60//20 61//20
f 54//21 44//21 62//21 72//21
f 42//21 54//21 72//21 60//21
f 45//22 43//22 61//22 63//22
f 44//23 52//23 70//23 62//23
f 38//23 39//23 57//23 56//23
f 48//24 46//24 64//24 66//24
f 51//25 48//25 66//25 69//25
f 55//22 38//22 56//22 73//22
f 52//23 45//23 63//23 70//23
f 46//26 47//26 65//26 74//26 64//26
f 39//21 41//21 59//21 57//21
f 41//20 53//20 71//20 59//20
f 47//27 49//27 67//27 65//27
f 74//28 65//28 67//28 68//28
f 58//29 71//29 69//29 67//29 73//29
f 40//30 55//30 49//30 51//30 53//30
f 71//31 53//31 51//31 69//31
f 67//32 49//32 55//32 73//32
